<svg width="274" height="803" viewBox="0 0 274 803" fill="none" xmlns="http://www.w3.org/2000/svg">
<path fill-rule="evenodd" clip-rule="evenodd" d="M377.219 3.74646V797.908C156.404 659.511 -48.7288 478.614 13.9512 328.671C83.8387 161.487 248.625 57.1958 377.219 3.74646Z" fill="#A383FF"/>
<path d="M377.219 3.74646H379.719V-2.14577e-06L376.259 1.43793L377.219 3.74646ZM377.219 797.908L375.891 800.026L379.719 802.425V797.908H377.219ZM13.9512 328.671L11.6446 327.707V327.707L13.9512 328.671ZM374.719 3.74646V797.908H379.719V3.74646H374.719ZM378.546 795.79C268.217 726.64 161.969 646.969 91.1564 565.974C20.2339 484.853 -14.4924 403.196 16.2577 329.636L11.6446 327.707C-20.2853 404.089 16.2146 487.852 87.3921 569.265C158.679 650.803 265.406 730.779 375.891 800.026L378.546 795.79ZM16.2577 329.636C85.7672 163.356 249.812 59.4095 378.178 6.05499L376.259 1.43793C247.437 54.9822 81.9102 159.619 11.6446 327.707L16.2577 329.636Z" fill="#001858"/>
</svg>
