<svg width="539" height="596" viewBox="0 0 539 596" fill="none" xmlns="http://www.w3.org/2000/svg">
<path fill-rule="evenodd" clip-rule="evenodd" d="M529.441 653.958H-4.00002C-10.6274 653.958 -16 648.585 -16 641.958V3.08479C76.0511 22.576 174.962 76.8849 196.418 202.267C231.257 405.863 271.176 491.735 529.441 653.958Z" fill="#A383FF"/>
<path d="M529.441 653.958V656.458H538.122L530.771 651.841L529.441 653.958ZM-16 3.08479L-15.4821 0.639012L-18.5 -3.33786e-06V3.08479H-16ZM196.418 202.267L198.882 201.845V201.845L196.418 202.267ZM529.441 651.458H-4.00002V656.458H529.441V651.458ZM-4.00002 651.458C-9.24672 651.458 -13.5 647.205 -13.5 641.958H-18.5C-18.5 649.966 -12.0082 656.458 -4.00002 656.458V651.458ZM-13.5 641.958V3.08479H-18.5V641.958H-13.5ZM198.882 201.845C177.178 75.0149 77.05 20.2321 -15.4821 0.639012L-16.5179 5.53056C75.0521 24.9199 172.746 78.7549 193.953 202.689L198.882 201.845ZM530.771 651.841C401.708 570.773 327.519 508.968 281.199 442.202C234.911 375.483 216.291 303.579 198.882 201.845L193.953 202.689C211.384 304.551 230.143 377.381 277.091 445.052C324.007 512.677 398.91 574.92 528.112 656.075L530.771 651.841Z" fill="#001858"/>
</svg>
